<svg width="500" height="600" viewBox="0 0 100 120" xmlns="http://www.w3.org/2000/svg" style="background-color:#000000;">
  <defs>
    <style>
      .wireframe {
        fill: none;
        stroke: #00faff; /* A bright cyan color */
        stroke-width: 0.5;
        stroke-linejoin: round;
      }
    </style>
  </defs>

  <polygon class="wireframe" points="50,15 25,40 50,50" />
  <polygon class="wireframe" points="50,15 75,40 50,50" />
  <polygon class="wireframe" points="25,40 20,70 50,50" />
  <polygon class="wireframe" points="75,40 80,70 50,50" />
  <polygon class="wireframe" points="20,70 30,90 50,80" />
  <polygon class="wireframe" points="80,70 70,90 50,80" />
  <polygon class="wireframe" points="20,70 50,80 50,50" />
  <polygon class="wireframe" points="80,70 50,80 50,50" />

  <polygon class="wireframe" points="30,90 50,100 50,80" />
  <polygon class="wireframe" points="70,90 50,100 50,80" />

  <polygon class="wireframe" points="50,50 48,65 52,65" />

  <polygon class="wireframe" points="40,100 35,115 50,105" />
  <polygon class="wireframe" points="60,100 65,115 50,105" />
  <polygon class="wireframe" points="40,100 50,105 50,100" />
  <polygon class="wireframe" points="60,100 50,105 50,100" />
</svg>